<svg width="151" height="74" viewBox="0 0 151 74" fill="none" xmlns="http://www.w3.org/2000/svg">
<path d="M148.745 33.0706C148.743 33.0688 148.741 33.0668 148.739 33.065L118.029 2.50244C115.728 0.212892 112.007 0.221412 109.717 2.52242C107.427 4.82313 107.436 8.54442 109.736 10.8343L130.355 31.3535H5.88413C2.63803 31.3535 0.00671387 33.9848 0.00671387 37.2309C0.00671387 40.477 2.63803 43.1083 5.88413 43.1083H130.355L109.737 63.6275C107.436 65.9174 107.427 69.6387 109.717 71.9394C112.007 74.2407 115.729 74.2486 118.029 71.9594L148.74 41.3968C148.741 41.395 148.743 41.393 148.745 41.3912C151.047 39.0937 151.04 35.3604 148.745 33.0706Z" fill="black"/>
</svg>
