<svg width="78" height="153" viewBox="0 0 78 153" fill="none" xmlns="http://www.w3.org/2000/svg">
<path fill-rule="evenodd" clip-rule="evenodd" d="M78.853 0.280444C95.8925 -2.13164 110.844 11.5002 124.012 22.5807C136.371 32.9808 146.09 45.907 151.259 61.21C156.477 76.6548 158.873 93.6112 153.166 108.882C147.584 123.818 134.795 134.804 120.86 142.554C108.109 149.644 93.4033 149.134 78.853 150.208C62.9114 151.385 46.2905 156.436 32.0845 149.108C16.9201 141.285 4.78922 126.671 0.984019 110.037C-2.69347 93.9621 4.56039 77.6478 12.4205 63.151C19.1781 50.6875 31.8197 43.9188 42.1171 34.1735C54.5216 22.4341 61.9427 2.67423 78.853 0.280444Z" fill="#2AA2DF" fill-opacity="0.3"/>
</svg>
